<?xml version="1.0" standalone="no"?>
<!DOCTYPE svg PUBLIC "-//W3C//DTD SVG 20010904//EN"
 "http://www.w3.org/TR/2001/REC-SVG-20010904/DTD/svg10.dtd">
<svg version="1.0" xmlns="http://www.w3.org/2000/svg"
 width="2784.000000pt" height="2784.000000pt" viewBox="0 0 2784.000000 2784.000000"
 preserveAspectRatio="xMidYMid meet">
<metadata>
Created by potrace 1.14, written by Peter Selinger 2001-2017
</metadata>
<g transform="translate(0.000000,2784.000000) scale(0.100000,-0.100000)"
fill="#000000" stroke="none">
<path d="M9115 17096 c-38 -13 -71 -29 -73 -35 -2 -6 -9 -11 -15 -11 -6 0 -24
-14 -38 -32 -33 -38 -49 -70 -76 -154 -7 -21 -10 -992 -10 -2935 0 -3074 -2
-2949 43 -3044 25 -53 93 -113 154 -136 37 -15 84 -23 145 -25 240 -9 364 87
392 301 5 36 7 1297 3 1320 -1 6 -1 15 0 20 1 6 2 384 2 840 0 692 2 838 14
880 31 110 133 216 276 287 63 31 168 71 218 83 8 2 60 15 115 29 55 13 116
27 135 30 19 3 46 8 60 10 76 14 211 28 277 30 29 0 53 3 53 6 0 7 609 4 680
-3 97 -10 164 -18 171 -23 4 -2 24 -6 45 -10 149 -23 313 -116 394 -223 44
-59 101 -183 115 -251 15 -70 26 -128 30 -155 3 -16 8 -48 12 -70 3 -22 8
-659 9 -1415 2 -980 6 -1389 15 -1425 15 -70 32 -115 41 -115 4 0 8 -4 8 -10
0 -18 44 -61 89 -88 116 -68 328 -67 441 1 49 30 76 59 101 107 50 96 49 61
45 1525 -3 1309 -5 1495 -16 1495 -3 0 -5 17 -6 38 -1 46 -10 111 -25 177 -17
80 -49 208 -58 230 -5 11 -14 38 -21 60 -18 59 -101 232 -143 297 -67 103
-159 207 -252 283 -59 49 -176 125 -190 125 -8 0 -15 4 -17 8 -6 15 -163 83
-248 108 -75 22 -212 56 -240 60 -19 2 -57 8 -85 14 -27 5 -86 13 -130 17
-101 10 -730 10 -810 0 -121 -15 -216 -30 -235 -37 -3 -1 -8 -2 -11 -2 -11 2
-192 -47 -214 -57 -11 -5 -42 -17 -70 -27 -27 -10 -56 -22 -62 -27 -7 -5 -13
-6 -13 -1 0 5 -4 5 -8 -1 -4 -5 -37 -25 -74 -43 -122 -61 -247 -153 -355 -260
l-60 -61 0 688 c0 379 -3 692 -6 697 -3 6 -3 15 1 21 9 14 7 528 -2 614 -10
93 -57 183 -120 230 -61 46 -115 61 -236 65 -79 3 -107 -1 -165 -20z"/>
<path d="M1149 15326 c-2 -3 -31 -7 -64 -11 -48 -5 -153 -26 -250 -49 -59 -14
-227 -85 -233 -98 -2 -5 -9 -8 -15 -8 -21 0 -132 -84 -198 -150 -101 -100
-178 -224 -230 -368 -11 -32 -23 -64 -26 -72 -8 -19 -10 -28 -16 -67 -3 -17
-8 -36 -11 -41 -3 -5 -8 -34 -12 -63 -3 -30 -8 -57 -10 -60 -10 -18 -19 -165
-19 -329 0 -207 8 -306 36 -430 5 -25 11 -54 14 -65 19 -95 128 -339 171 -382
7 -8 14 -18 14 -23 0 -14 142 -154 200 -197 154 -115 360 -188 619 -219 25 -4
1162 -7 2526 -9 1364 -2 2503 -6 2530 -9 71 -8 145 -25 182 -42 17 -8 34 -14
37 -14 9 0 70 -43 78 -55 3 -5 16 -21 27 -34 28 -32 56 -110 74 -206 17 -88
21 -390 6 -455 -5 -20 -10 -52 -13 -71 -4 -38 -31 -110 -55 -149 -53 -87 -166
-141 -333 -157 -40 -4 -1189 -7 -2553 -7 -1884 0 -2497 3 -2552 12 -197 33
-262 87 -328 272 -66 188 -151 282 -275 304 -14 2 -25 5 -25 6 0 5 -145 0
-170 -5 -16 -4 -37 -9 -45 -10 -79 -13 -187 -111 -213 -195 -20 -67 -15 -243
9 -281 4 -7 8 -22 10 -33 7 -58 113 -306 144 -336 3 -3 17 -23 32 -46 23 -36
152 -172 189 -199 122 -91 247 -151 409 -196 25 -7 47 -13 50 -14 14 -5 116
-19 123 -17 4 1 7 -1 7 -6 0 -4 15 -8 33 -10 75 -8 5167 -10 5217 -2 30 4 75
11 100 14 25 4 52 9 60 11 8 2 30 7 47 10 56 9 195 56 263 88 74 35 173 95
178 108 2 5 8 9 13 9 13 0 140 127 175 175 16 22 31 42 34 45 3 3 16 25 29 50
13 25 31 53 40 64 9 10 15 19 13 20 -2 0 2 15 8 31 45 113 59 155 54 155 -4 0
-2 6 4 13 5 6 12 26 15 42 3 17 10 53 17 80 6 28 14 64 16 80 2 17 7 50 11 75
9 65 9 495 -1 560 -4 30 -9 64 -11 75 -5 42 -17 101 -25 130 -5 17 -11 41 -14
55 -17 99 -117 305 -196 405 -55 69 -197 205 -215 205 -2 0 -23 13 -47 29 -83
56 -278 132 -374 146 -11 1 -45 8 -75 14 -30 6 -76 13 -104 17 -27 3 -1157 7
-2510 9 -1353 1 -2494 5 -2535 9 -70 6 -115 12 -115 16 0 1 -11 3 -25 6 -14 2
-54 19 -89 36 -99 50 -140 120 -165 278 -19 120 -19 113 -12 290 7 200 38 319
101 382 28 28 98 64 139 72 14 3 29 7 34 10 5 3 42 8 83 12 81 9 4906 9 4979
1 117 -13 195 -44 245 -95 34 -35 51 -67 88 -165 39 -105 93 -180 153 -217 68
-41 89 -45 219 -44 102 0 115 2 175 31 117 57 169 132 175 254 6 122 -33 260
-128 459 -12 25 -24 47 -27 50 -3 3 -23 31 -45 63 -53 79 -145 169 -230 227
-84 56 -170 102 -179 93 -3 -4 -6 -1 -6 5 0 7 -8 12 -18 12 -10 0 -22 4 -27 8
-17 15 -206 62 -315 79 -47 7 -5064 16 -5071 9z"/>
<path d="M16079 15326 c-2 -2 -49 -7 -104 -10 -55 -4 -109 -9 -120 -11 -11 -2
-40 -7 -65 -10 -78 -10 -93 -13 -195 -35 -55 -12 -104 -25 -110 -28 -5 -4 -18
-8 -28 -9 -26 -4 -213 -72 -232 -85 -6 -3 -41 -22 -79 -42 -227 -119 -417
-338 -516 -598 -87 -228 -83 -346 16 -445 48 -48 99 -78 149 -88 11 -2 20 -4
20 -5 0 -5 50 -10 110 -10 202 -2 282 53 389 265 54 106 129 205 156 205 5 0
15 6 23 14 30 30 171 78 287 97 159 26 269 31 755 31 242 0 470 -3 507 -6 78
-6 230 -34 267 -48 14 -5 34 -11 44 -13 11 -3 56 -22 101 -44 80 -40 169 -115
201 -171 25 -43 56 -109 53 -113 -2 -2 2 -10 8 -18 12 -14 29 -65 38 -109 3
-14 10 -43 15 -65 9 -37 12 -59 26 -187 5 -45 3 -48 -17 -48 -13 0 -484 -2
-1048 -4 -564 -2 -1038 -6 -1055 -9 -16 -3 -52 -8 -80 -12 -27 -3 -81 -13
-120 -21 -38 -8 -80 -17 -92 -20 -98 -20 -295 -108 -398 -177 -63 -43 -245
-219 -245 -237 0 -6 -8 -20 -18 -31 -17 -17 -111 -199 -133 -254 -7 -19 -21
-62 -25 -77 -1 -5 -2 -9 -4 -10 -2 -3 -3 -9 -20 -78 -12 -47 -14 -54 -29 -135
-27 -134 -35 -249 -34 -455 0 -96 4 -202 7 -235 12 -117 17 -160 22 -176 3
-10 6 -30 8 -45 9 -66 56 -230 86 -299 10 -22 27 -62 38 -88 63 -144 224 -332
361 -421 58 -38 147 -88 161 -91 3 -1 23 -9 45 -19 82 -35 227 -77 324 -92 18
-3 43 -7 54 -10 78 -15 215 -19 607 -19 399 0 491 3 595 21 17 3 46 7 65 9 29
4 125 28 240 61 14 4 31 11 38 17 6 5 12 7 12 4 0 -11 164 64 239 109 40 24
76 44 78 44 6 0 118 86 137 106 9 8 16 13 16 10 0 -7 138 133 166 169 21 26
24 27 24 10 1 -11 3 -83 4 -160 4 -149 18 -208 67 -280 22 -32 109 -96 139
-103 66 -14 97 -17 180 -17 110 0 170 19 237 72 50 40 99 135 109 208 16 128
6 2802 -10 2892 -2 10 -7 47 -12 83 -4 36 -8 67 -9 70 -1 3 -5 25 -9 50 -5 25
-10 52 -12 60 -20 83 -28 115 -49 180 -28 89 -82 221 -95 234 -6 6 -10 18 -10
28 0 10 -4 18 -10 18 -5 0 -10 5 -10 11 0 5 -25 47 -55 93 -52 79 -159 197
-235 262 -39 33 -152 109 -160 107 -3 0 -17 8 -32 18 -14 10 -31 19 -36 19 -6
0 -12 4 -14 8 -1 5 -34 21 -73 36 -183 74 -343 113 -582 143 -46 6 -1038 15
-1044 9z m1717 -2358 c13 -14 10 -698 -4 -758 -7 -30 -15 -65 -18 -78 -8 -36
-64 -152 -98 -202 -30 -44 -128 -147 -175 -183 -143 -112 -404 -209 -628 -233
-31 -3 -66 -8 -77 -10 -64 -12 -256 -18 -601 -18 -501 1 -555 6 -717 67 -32
12 -58 25 -58 29 0 5 -6 8 -14 8 -20 0 -81 71 -109 127 -31 62 -59 170 -73
280 -14 117 -6 516 12 544 3 5 9 35 18 86 1 7 5 16 9 19 4 4 7 14 7 22 0 29
61 134 97 167 79 72 220 119 398 131 44 4 81 7 82 8 6 5 1943 -1 1949 -6z"/>
<path d="M20520 15310 c-114 -35 -181 -103 -218 -224 -4 -11 -8 -930 -9 -2042
-3 -1717 -1 -2028 11 -2068 8 -25 15 -50 16 -54 15 -59 75 -129 139 -161 74
-38 227 -50 335 -26 79 17 163 86 197 160 37 82 33 -83 42 2005 2 393 7 731
11 750 5 19 10 42 11 50 2 8 4 15 5 15 1 0 4 12 6 27 3 15 11 39 19 55 8 15
15 31 15 36 0 9 42 100 49 107 3 3 15 21 25 40 45 82 173 219 260 280 12 8 27
20 33 26 7 7 26 18 43 26 16 7 30 16 30 20 0 5 5 8 11 8 6 0 24 9 40 21 16 11
29 18 29 14 0 -3 10 1 23 9 12 8 58 29 102 45 106 41 188 63 355 96 71 14 201
28 272 29 32 1 58 3 58 6 0 3 60 5 134 6 167 1 254 25 316 85 39 38 77 101 86
143 21 93 24 184 9 266 -21 121 -98 212 -206 245 -52 16 -92 20 -214 19 -137
-1 -185 -4 -299 -19 -99 -13 -188 -32 -283 -60 -49 -15 -92 -28 -98 -29 -16
-5 -47 -17 -90 -34 -21 -10 -42 -17 -45 -17 -35 -2 -307 -163 -389 -230 -38
-31 -143 -128 -162 -150 -10 -11 -37 -40 -60 -65 -22 -25 -52 -62 -66 -83 -14
-20 -27 -36 -29 -34 -2 1 -4 95 -4 208 -1 200 -9 279 -33 329 -40 85 -94 135
-180 167 -62 23 -228 24 -297 3z"/>
<path d="M25118 15325 c-4 -4 -60 -12 -143 -21 -33 -3 -80 -10 -105 -16 -25
-5 -56 -12 -70 -14 -191 -36 -441 -148 -599 -269 -37 -28 -181 -175 -181 -185
0 -6 -4 -8 -10 -5 -5 3 -10 1 -10 -5 0 -7 -13 -29 -29 -49 -48 -61 -166 -288
-175 -336 -1 -5 -12 -39 -23 -75 -12 -36 -25 -78 -29 -95 -4 -16 -8 -34 -10
-40 -1 -5 -5 -26 -9 -45 -3 -19 -11 -55 -16 -80 -6 -25 -12 -65 -15 -90 -3
-25 -7 -63 -10 -85 -25 -211 -26 -1655 -1 -1780 3 -11 8 -47 12 -80 6 -51 20
-125 51 -265 9 -40 10 -43 23 -75 7 -16 15 -42 18 -58 3 -15 10 -30 14 -33 5
-3 9 -12 9 -20 0 -27 77 -177 137 -269 104 -158 262 -306 415 -388 28 -15 58
-33 66 -40 8 -6 17 -11 18 -10 2 1 25 -7 51 -18 114 -50 321 -108 433 -123 25
-3 56 -8 70 -11 83 -16 228 -20 755 -20 574 0 696 4 820 26 33 6 74 13 90 15
17 2 51 8 76 14 26 6 55 13 65 15 11 2 20 4 22 5 1 2 5 3 10 4 142 37 300 104
430 181 128 76 265 217 370 380 20 32 78 156 93 200 8 22 18 43 24 47 5 4 7 8
3 8 -4 0 0 24 9 53 26 87 50 239 46 292 -8 98 -65 180 -154 223 -64 31 -81 34
-183 37 -217 6 -323 -78 -401 -319 -48 -147 -124 -246 -235 -305 -64 -34 -157
-66 -220 -76 -8 -1 -31 -6 -50 -9 -120 -24 -286 -30 -810 -30 -574 0 -657 5
-805 40 -74 18 -89 22 -92 24 -2 2 -6 3 -10 5 -107 30 -240 124 -299 210 -46
69 -103 231 -120 345 -3 19 -7 46 -9 60 -11 61 -18 198 -19 363 l-1 177 1567
1 c863 1 1571 2 1576 4 4 1 25 5 47 10 53 10 123 50 157 88 35 38 68 107 77
155 9 53 8 791 -2 887 -13 135 -38 288 -63 375 -8 30 -17 65 -20 77 -18 88
-112 299 -178 398 -64 98 -171 219 -248 280 -45 36 -147 105 -156 105 -6 0
-12 4 -14 9 -10 25 -329 151 -428 167 -8 2 -31 6 -50 10 -19 5 -39 9 -45 9 -5
1 -28 5 -50 8 -51 10 -107 17 -170 24 -54 6 -1281 13 -1287 8z m1227 -770 c39
-3 81 -8 95 -11 14 -3 36 -7 50 -9 42 -6 78 -15 102 -24 13 -5 26 -9 31 -10
44 -6 159 -57 201 -91 60 -47 118 -113 150 -172 36 -66 91 -226 81 -236 -3 -3
-1 -10 4 -16 18 -22 34 -196 35 -371 l1 -140 -1346 0 -1345 0 2 106 c5 231 24
389 61 499 8 25 16 53 18 62 8 40 67 147 107 194 72 86 218 165 348 190 8 2
31 6 50 10 43 9 49 9 135 18 38 4 70 8 72 9 5 6 1086 -2 1148 -8z"/>
</g>
</svg>
