<svg width="249" height="96" viewBox="0 0 249 96" fill="none" xmlns="http://www.w3.org/2000/svg">
<path d="M214.711 64.8285L214.552 64.8931L214.439 65.0231L205.355 75.5051H19.7153V19.7153H229.285V58.9298L214.711 64.8285Z" stroke="#BA74F8" stroke-width="1.43051"/>
<g filter="url(#filter0_f_105_11)">
<path d="M214.711 64.8285L214.552 64.8931L214.439 65.0231L205.355 75.5051H19.7153V19.7153H229.285V58.9298L214.711 64.8285Z" stroke="#BA74F8" stroke-width="1.43051"/>
</g>
<path d="M19 32.2322L29.3712 19" stroke="#BA74F8" stroke-width="1.43051"/>
<path d="M43.4046 54.2071C42.3628 54.2071 41.5383 53.9938 40.9313 53.5672C40.3242 53.1324 39.9346 52.4844 39.7623 51.623C39.7049 51.2785 39.7705 51.0077 39.9592 50.8109C40.1561 50.614 40.4268 50.5155 40.7713 50.5155C41.1077 50.5155 41.3497 50.6017 41.4973 50.7739C41.6532 50.938 41.7803 51.1882 41.8788 51.5246C41.9772 51.7707 42.1413 51.9347 42.371 52.0168C42.6089 52.0988 42.9534 52.1398 43.4046 52.1398H47.4407C48.0806 52.1398 48.5113 52.0373 48.7328 51.8322C48.9543 51.6189 49.065 51.18 49.065 50.5155C49.065 49.8593 48.9543 49.4245 48.7328 49.2112C48.5113 48.9979 48.0806 48.8912 47.4407 48.8912H43.4785C42.2972 48.8912 41.4071 48.5918 40.8082 47.993C40.2094 47.3941 39.9099 46.504 39.9099 45.3227C39.9099 44.1168 40.2012 43.2185 40.7836 42.6279C41.3743 42.029 42.2726 41.7296 43.4785 41.7296H47.3177C49.2455 41.7296 50.3858 42.5417 50.7385 44.166C50.8042 44.5106 50.7385 44.7772 50.5417 44.9659C50.3448 45.1546 50.0741 45.2489 49.7295 45.2489C49.4096 45.2489 49.1717 45.1669 49.0158 45.0028C48.8599 44.8305 48.7369 44.5926 48.6467 44.2891C48.5482 44.0922 48.3964 43.961 48.1914 43.8953C47.9945 43.8297 47.7033 43.7969 47.3177 43.7969H43.4785C42.855 43.7969 42.4489 43.8912 42.2602 44.0799C42.0716 44.2686 41.9772 44.6829 41.9772 45.3227C41.9772 45.9134 42.0757 46.3112 42.2726 46.5163C42.4776 46.7214 42.8796 46.824 43.4785 46.824H47.4407C48.6713 46.824 49.5942 47.1316 50.2094 47.7469C50.8247 48.3621 51.1323 49.285 51.1323 50.5155C51.1323 51.7543 50.8247 52.6813 50.2094 53.2965C49.5942 53.9036 48.6713 54.2071 47.4407 54.2071H43.4046Z" fill="white"/>
<path d="M60.7877 54.2071C59.1634 54.2071 57.9657 53.8215 57.1946 53.0504C56.4234 52.2793 56.0379 51.0898 56.0379 49.4819V43.7969H54.832C54.1429 43.7969 53.7983 43.4523 53.7983 42.7632C53.7983 42.0742 54.1429 41.7296 54.832 41.7296H56.0379V39.933C56.0379 39.244 56.3824 38.8994 57.0715 38.8994C57.7606 38.8994 58.1051 39.244 58.1051 39.933V41.7296H60.9353C61.6244 41.7296 61.969 42.0742 61.969 42.7632C61.969 43.4523 61.6244 43.7969 60.9353 43.7969H58.1051V49.4819C58.1051 50.5237 58.2938 51.2292 58.6712 51.5984C59.0485 51.9593 59.754 52.1398 60.7877 52.1398C61.1076 52.1398 61.3578 52.2219 61.5383 52.3859C61.727 52.55 61.8213 52.8125 61.8213 53.1735C61.8213 53.8626 61.4768 54.2071 60.7877 54.2071Z" fill="white"/>
<path d="M66.3227 48.8174V49.4081C66.3227 50.4663 66.5155 51.1882 66.9011 51.5738C67.2866 51.9511 68.0126 52.1398 69.0791 52.1398H71.0971C71.9339 52.1398 72.5533 52.0619 72.9552 51.906C73.3572 51.7502 73.6238 51.4753 73.7551 51.0816C73.8453 50.7698 73.9684 50.5319 74.1242 50.3679C74.2883 50.2038 74.5344 50.1218 74.8625 50.1218C75.2071 50.1218 75.4696 50.212 75.6501 50.3925C75.8306 50.573 75.888 50.8355 75.8223 51.18C75.6419 52.1972 75.1579 52.9561 74.3703 53.4565C73.5828 53.9569 72.4917 54.2071 71.0971 54.2071H69.0791C67.4466 54.2071 66.2325 53.8133 65.4367 53.0258C64.6492 52.2383 64.2554 51.0324 64.2554 49.4081V46.5533C64.2554 44.8879 64.6492 43.6656 65.4367 42.8863C66.2325 42.0988 67.4466 41.7132 69.0791 41.7296H71.0971C72.7378 41.7296 73.952 42.1234 74.7395 42.9109C75.527 43.6902 75.9208 44.9044 75.9208 46.5533V47.7838C75.9208 48.4729 75.5762 48.8174 74.8872 48.8174H66.3227ZM69.0791 43.7969C68.0126 43.7805 67.2866 43.9651 66.9011 44.3506C66.5155 44.7362 66.3227 45.4704 66.3227 46.5533V46.7501H73.8535V46.5533C73.8535 45.4786 73.6607 44.7526 73.2752 44.3752C72.8978 43.9897 72.1718 43.7969 71.0971 43.7969H69.0791Z" fill="white"/>
<path d="M84.2831 54.2071C82.905 54.2071 81.8795 53.8708 81.2068 53.1981C80.5342 52.5254 80.1978 51.4999 80.1978 50.1218C80.1978 48.7436 80.5301 47.7181 81.1945 47.0455C81.8672 46.3728 82.8968 46.0364 84.2831 46.0364H89.4883C89.439 45.1751 89.2134 44.5885 88.8115 44.2768C88.4095 43.9568 87.7204 43.7969 86.7442 43.7969H85.3168C84.4964 43.7969 83.8853 43.8543 83.4833 43.9692C83.0813 44.0758 82.7983 44.2727 82.6342 44.5598C82.4866 44.9044 82.3348 45.1423 82.179 45.2735C82.0231 45.4048 81.7893 45.4704 81.4776 45.4704C81.133 45.4704 80.8623 45.3761 80.6654 45.1874C80.4685 44.9905 80.4111 44.7321 80.4931 44.4121C80.7392 43.4851 81.252 42.8084 82.0313 42.3818C82.8188 41.947 83.914 41.7296 85.3168 41.7296H86.7442C88.3849 41.7296 89.599 42.1234 90.3865 42.9109C91.1741 43.6984 91.5678 44.9126 91.5678 46.5533V53.1735C91.5678 53.8626 91.2233 54.2071 90.5342 54.2071C89.8451 54.2071 89.5006 53.8626 89.5006 53.1735V52.6197C88.6228 53.678 87.343 54.2071 85.6613 54.2071H84.2831ZM84.2831 52.1398H85.6613C86.2684 52.1398 86.8385 52.0865 87.3718 51.9799C87.905 51.865 88.3603 51.6599 88.7376 51.3646C89.1232 51.0693 89.3775 50.6468 89.5006 50.0972V48.1037H84.2831C83.471 48.1037 82.9296 48.2391 82.6589 48.5098C82.3963 48.7805 82.2651 49.3178 82.2651 50.1218C82.2651 50.9339 82.3963 51.4753 82.6589 51.7461C82.9296 52.0086 83.471 52.1398 84.2831 52.1398Z" fill="white"/>
<path d="M100.166 54.2071C98.9114 54.2071 97.9762 53.8995 97.3609 53.2842C96.7538 52.6607 96.4503 51.7214 96.4503 50.4663V37.915C96.4503 37.2259 96.7949 36.8813 97.484 36.8813C98.173 36.8813 98.5176 37.2259 98.5176 37.915V50.4663C98.5176 51.1308 98.6242 51.5779 98.8375 51.8076C99.059 52.0291 99.502 52.1398 100.166 52.1398C100.872 52.1398 101.225 52.4844 101.225 53.1735C101.249 53.8626 100.897 54.2071 100.166 54.2071Z" fill="white"/>
<path d="M109.912 54.2071C108.288 54.2071 107.09 53.8215 106.319 53.0504C105.548 52.2793 105.163 51.0898 105.163 49.4819V43.7969H103.957C103.268 43.7969 102.923 43.4523 102.923 42.7632C102.923 42.0742 103.268 41.7296 103.957 41.7296H105.163V39.933C105.163 39.244 105.507 38.8994 106.196 38.8994C106.885 38.8994 107.23 39.244 107.23 39.933V41.7296H110.06C110.749 41.7296 111.094 42.0742 111.094 42.7632C111.094 43.4523 110.749 43.7969 110.06 43.7969H107.23V49.4819C107.23 50.5237 107.419 51.2292 107.796 51.5984C108.173 51.9593 108.879 52.1398 109.912 52.1398C110.232 52.1398 110.483 52.2219 110.663 52.3859C110.852 52.55 110.946 52.8125 110.946 53.1735C110.946 53.8626 110.602 54.2071 109.912 54.2071Z" fill="white"/>
<path d="M115.99 54.2071C115.301 54.2071 114.956 53.8626 114.956 53.1735V37.915C114.956 37.2259 115.301 36.8813 115.99 36.8813C116.679 36.8813 117.023 37.2259 117.023 37.915V43.1693C117.893 42.2095 119.173 41.7296 120.863 41.7296H121.552C123.193 41.7296 124.407 42.1234 125.194 42.9109C125.982 43.6984 126.375 44.9126 126.375 46.5533V53.1735C126.375 53.8626 126.031 54.2071 125.342 54.2071C124.653 54.2071 124.308 53.8626 124.308 53.1735V46.5533C124.308 45.4786 124.111 44.7526 123.718 44.3752C123.332 43.9897 122.61 43.7969 121.552 43.7969H120.863C119.878 43.7969 119.021 43.9117 118.291 44.1414C117.561 44.3629 117.138 44.7157 117.023 45.1997V53.1735C117.023 53.8626 116.679 54.2071 115.99 54.2071Z" fill="white"/>
<path d="M134.18 54.2071C133.138 54.2071 132.313 53.9938 131.706 53.5672C131.099 53.1324 130.71 52.4844 130.537 51.623C130.48 51.2785 130.546 51.0077 130.734 50.8109C130.931 50.614 131.202 50.5155 131.546 50.5155C131.883 50.5155 132.125 50.6017 132.272 50.7739C132.428 50.938 132.555 51.1882 132.654 51.5246C132.752 51.7707 132.916 51.9347 133.146 52.0168C133.384 52.0988 133.728 52.1398 134.18 52.1398H147.311C147.951 52.1398 148.382 52.0373 148.603 51.8322C148.825 51.6189 148.935 51.18 148.935 50.5155C148.935 49.8593 148.825 49.4245 148.603 49.2112C148.382 48.9979 147.951 48.8912 147.311 48.8912H134.253C133.072 48.8912 132.182 48.5918 131.583 47.993C130.984 47.3941 130.685 46.504 130.685 45.3227C130.685 44.1168 130.976 43.2185 131.559 42.6279C132.149 42.029 133.048 41.7296 134.253 41.7296H147.188C149.116 41.7296 150.256 42.5417 150.609 44.166C150.675 44.5106 150.609 44.7772 150.412 44.9659C150.215 45.1546 149.944 45.2489 149.6 45.2489C149.28 45.2489 149.042 45.1669 148.886 45.0028C148.73 44.8305 148.607 44.5926 148.517 44.2891C148.419 44.0922 148.267 43.961 148.062 43.8953C147.865 43.8297 147.574 43.7969 147.188 43.7969H134.253C133.63 43.7969 133.224 43.8912 133.035 44.0799C132.847 44.2686 132.752 44.6829 132.752 45.3227C132.752 45.9134 132.851 46.3112 133.048 46.5163C133.253 46.7214 133.655 46.824 134.253 46.824H147.311C148.542 46.824 149.465 47.1316 150.08 47.7469C150.695 48.3621 151.003 49.285 151.003 50.5155C151.003 51.7543 150.695 52.6813 150.08 53.2965C149.465 53.9036 148.542 54.2071 147.311 54.2071H134.18Z" fill="white"/>
<path d="M156.425 54.2071C155.736 54.2071 155.391 53.8626 155.391 53.1735V37.915C155.391 37.2259 155.736 36.8813 156.425 36.8813C157.114 36.8813 157.459 37.2259 157.459 37.915V43.1693C158.328 42.2095 159.608 41.7296 161.298 41.7296H161.987C163.628 41.7296 164.842 42.1234 165.629 42.9109C166.417 43.6984 166.811 44.9126 166.811 46.5533V53.1735C166.811 53.8626 166.466 54.2071 165.777 54.2071C165.088 54.2071 164.743 53.8626 164.743 53.1735V46.5533C164.743 45.4786 164.547 44.7526 164.153 44.3752C163.767 43.9897 163.045 43.7969 161.987 43.7969H161.298C160.314 43.7969 159.456 43.9117 158.726 44.1414C157.996 44.3629 157.574 44.7157 157.459 45.1997V53.1735C157.459 53.8626 157.114 54.2071 156.425 54.2071Z" fill="white"/>
<path d="M175.045 54.2071C173.667 54.2071 172.641 53.8708 171.968 53.1981C171.296 52.5254 170.959 51.4999 170.959 50.1218C170.959 48.7436 171.292 47.7181 171.956 47.0455C172.629 46.3728 173.658 46.0364 175.045 46.0364H180.25C180.201 45.1751 179.975 44.5885 179.573 44.2768C179.171 43.9568 178.482 43.7969 177.506 43.7969H176.078C175.258 43.7969 174.647 43.8543 174.245 43.9692C173.843 44.0758 173.56 44.2727 173.396 44.5598C173.248 44.9044 173.096 45.1423 172.941 45.2735C172.785 45.4048 172.551 45.4704 172.239 45.4704C171.895 45.4704 171.624 45.3761 171.427 45.1874C171.23 44.9905 171.173 44.7321 171.255 44.4121C171.501 43.4851 172.014 42.8084 172.793 42.3818C173.58 41.947 174.676 41.7296 176.078 41.7296H177.506C179.147 41.7296 180.361 42.1234 181.148 42.9109C181.936 43.6984 182.329 44.9126 182.329 46.5533V53.1735C182.329 53.8626 181.985 54.2071 181.296 54.2071C180.607 54.2071 180.262 53.8626 180.262 53.1735V52.6197C179.384 53.678 178.105 54.2071 176.423 54.2071H175.045ZM175.045 52.1398H176.423C177.03 52.1398 177.6 52.0865 178.133 51.9799C178.667 51.865 179.122 51.6599 179.499 51.3646C179.885 51.0693 180.139 50.6468 180.262 50.0972V48.1037H175.045C174.233 48.1037 173.691 48.2391 173.42 48.5098C173.158 48.7805 173.027 49.3178 173.027 50.1218C173.027 50.9339 173.158 51.4753 173.42 51.7461C173.691 52.0086 174.233 52.1398 175.045 52.1398Z" fill="white"/>
<path d="M188.246 54.2071C187.556 54.2071 187.212 53.8626 187.212 53.1735V42.7632C187.212 42.0742 187.556 41.7296 188.246 41.7296C188.935 41.7296 189.279 42.0742 189.279 42.7632V43.7231C189.763 43.0668 190.378 42.5705 191.125 42.2341C191.88 41.8978 192.741 41.7296 193.709 41.7296C194.398 41.7296 194.743 42.0742 194.743 42.7632C194.743 43.4523 194.398 43.7969 193.709 43.7969C192.29 43.7969 191.207 44.0594 190.461 44.5844C189.714 45.1094 189.32 45.8026 189.279 46.664V53.1735C189.279 53.8626 188.935 54.2071 188.246 54.2071Z" fill="white"/>
<path d="M198.711 48.8174V49.4081C198.711 50.4663 198.903 51.1882 199.289 51.5738C199.675 51.9511 200.401 52.1398 201.467 52.1398H203.485C204.322 52.1398 204.941 52.0619 205.343 51.906C205.745 51.7502 206.012 51.4753 206.143 51.0816C206.233 50.7698 206.356 50.5319 206.512 50.3679C206.676 50.2038 206.922 50.1218 207.25 50.1218C207.595 50.1218 207.857 50.212 208.038 50.3925C208.218 50.573 208.276 50.8355 208.21 51.18C208.03 52.1972 207.546 52.9561 206.758 53.4565C205.971 53.9569 204.88 54.2071 203.485 54.2071H201.467C199.834 54.2071 198.62 53.8133 197.825 53.0258C197.037 52.2383 196.643 51.0324 196.643 49.4081V46.5533C196.643 44.8879 197.037 43.6656 197.825 42.8863C198.62 42.0988 199.834 41.7132 201.467 41.7296H203.485C205.126 41.7296 206.34 42.1234 207.127 42.9109C207.915 43.6902 208.309 44.9044 208.309 46.5533V47.7838C208.309 48.4729 207.964 48.8174 207.275 48.8174H198.711ZM201.467 43.7969C200.401 43.7805 199.675 43.9651 199.289 44.3506C198.903 44.7362 198.711 45.4704 198.711 46.5533V46.7501H206.241V46.5533C206.241 45.4786 206.049 44.7526 205.663 44.3752C205.286 43.9897 204.56 43.7969 203.485 43.7969H201.467Z" fill="white"/>
<defs>
<filter id="filter0_f_105_11" x="0" y="0" width="249" height="95.2203" filterUnits="userSpaceOnUse" color-interpolation-filters="sRGB">
<feFlood flood-opacity="0" result="BackgroundImageFix"/>
<feBlend mode="normal" in="SourceGraphic" in2="BackgroundImageFix" result="shape"/>
<feGaussianBlur stdDeviation="9.5" result="effect1_foregroundBlur_105_11"/>
</filter>
</defs>
</svg>
