<svg width="20" height="20" viewBox="0 0 20 20" fill="none" xmlns="http://www.w3.org/2000/svg">
<path d="M3.33337 6.11111H4.72226H15.8334" stroke="white" stroke-width="1.6" stroke-linecap="round" stroke-linejoin="round"/>
<path d="M6.80562 6.11112V4.72223C6.80562 4.35388 6.95195 4.00061 7.21242 3.74014C7.47289 3.47967 7.82616 3.33334 8.19451 3.33334H10.9723C11.3406 3.33334 11.6939 3.47967 11.9544 3.74014C12.2149 4.00061 12.3612 4.35388 12.3612 4.72223V6.11112M14.4445 6.11112V15.8333C14.4445 16.2017 14.2982 16.555 14.0377 16.8154C13.7772 17.0759 13.424 17.2222 13.0556 17.2222H6.11118C5.74282 17.2222 5.38955 17.0759 5.12909 16.8154C4.86862 16.555 4.72229 16.2017 4.72229 15.8333V6.11112H14.4445Z" stroke="white" stroke-width="1.6" stroke-linecap="round" stroke-linejoin="round"/>
</svg>
